Lay the Favorite 2012 DVDRIP Xvid AC3-BHRG

IMDB: http://www.imdb.com/title/tt1132449/

File size : 1.40 GiB
Duration : 1h 29mn
Overall bit rate : 2 231 Kbps

Video
ID : 0
Format : MPEG-4 Visual
Format profile : Advanced Simple@L5
Format settings, BVOP : 2
Format settings, QPel : No
Format settings, GMC : No warppoints
Format settings, Matrix : Default (H.263)
Codec ID : XVID
Codec ID/Hint : XviD
Duration : 1h 29mn
Bit rate : 1 778 Kbps
Width : 720 pixels
Height : 384 pixels
Display aspect ratio : 1.85:1
Frame rate : 25.000 fps
Color space : YUV
Chroma subsampling : 4:2:0
Bit depth : 8 bits
Scan type : Progressive
Compression mode : Lossy
Bits/(Pixel*Frame) : 0.257
Stream size : 1.12 GiB (80%)
Writing library : XviD 1.2.1 (UTC 2008-12-04)

Audio
ID : 1
Format : AC-3
Format/Info : Audio Coding 3
Mode extension : CM (complete main)
Format settings, Endianness : Big
Codec ID : 2000
Duration : 1h 29mn
Bit rate mode : Constant
Bit rate : 448 Kbps
Channel(s) : 6 channels
Channel positions : Front: L C R, Side: L R, LFE
Sampling rate : 48.0 KHz
Bit depth : 16 bits
Compression mode : Lossy
Stream size : 288 MiB (20%)
Alignment : Aligned on interleaves
Interleave, duration : 64 ms (1.60 video frames)
Interleave, preload duration : 512 ms
Title : VTS_01_1 T80 3_2ch 448Kbps DELAY 0ms

Source PAL DVD-BHRG

Sample enclosed ....couldnt help myself LOL

plot
Beth, a Las Vegas cocktail waitress, falls in with Dink, a sports gambler who swoons for her as she proves to be something of a gambling prodigy, earning the initial ire of Dink's wife, Tulip.


Poster:

 
http://imgon.net/di-XW90.jpg


Screenshots:

 
http://imgon.net/di-RBZ7.jpg


ENJOY!